<svg id="レイヤー_1" data-name="レイヤー 1" xmlns="http://www.w3.org/2000/svg" xmlns:xlink="http://www.w3.org/1999/xlink" viewBox="0 0 512 521.39"><defs><style>.cls-1,.cls-3{fill:#fff;}.cls-1,.cls-2{stroke:#000;stroke-miterlimit:10;stroke-width:3px;}.cls-2{fill:none;}.cls-4{clip-path:url(#clip-path);}.cls-5{clip-path:url(#clip-path-2);}.cls-6{fill:url(#名称未設定グラデーション_63);}.cls-7{fill:url(#名称未設定グラデーション_78);}</style><clipPath id="clip-path" transform="translate(0 0)"><circle class="cls-1" cx="256" cy="256" r="250"/></clipPath><clipPath id="clip-path-2" transform="translate(0 0)"><path class="cls-2" d="M491.77,137l-15-26L255,239.07,33.23,111l-15,26L241,265.63V519.89h30V264.48Zm-236,119h-1.5l.75-1.3Z"/></clipPath><radialGradient id="名称未設定グラデーション_63" cx="256" cy="256" r="256" gradientUnits="userSpaceOnUse"><stop offset="0" stop-color="#ffff7f"/><stop offset="0.44" stop-color="#fefd7e"/><stop offset="0.6" stop-color="#fbf67a"/><stop offset="0.72" stop-color="#f7eb74"/><stop offset="0.81" stop-color="#f0da6a"/><stop offset="0.89" stop-color="#e7c45e"/><stop offset="0.96" stop-color="#dca950"/><stop offset="1" stop-color="#d39444"/></radialGradient><linearGradient id="名称未設定グラデーション_78" x1="251.61" y1="255.39" x2="259.17" y2="255.39" gradientUnits="userSpaceOnUse"><stop offset="0" stop-color="#ffff7f"/><stop offset="1" stop-color="#ffff7f"/></linearGradient></defs><circle class="cls-3" cx="256" cy="256" r="250"/><g class="cls-4"><g class="cls-5"><circle class="cls-6" cx="256" cy="256" r="256"/></g><path class="cls-2" d="M491.77,137l-15-26L255,239.07,33.23,111l-15,26L241,265.63V519.89h30V264.48Zm-236,119h-1.5l.75-1.3Z" transform="translate(0 0)"/></g><circle class="cls-2" cx="256" cy="256" r="250"/><rect class="cls-7" x="251.61" y="251.61" width="7.57" height="7.57"/></svg>